# xmcd CD database file generated by Grip 3.0.1
# 
# Track frame offsets:
#       150
#       22032
#       45105
#       61285
#       73805
#       84292
#       97985
#       122955
#       137655
#       150507
#       165034
#       186607
#       196655
#       208260
#       219627
#       231317
#       248967
#       261965
#       273230
#       292252
# 
# Disc length: 4097 seconds
# 
# Revision: 4
# Processed by: cddbd v1.4PL0 Copyright (c) Steve Scherf et al.
# Submitted via: Grip 3.0.1
# 
DISCID=260fff14
DTITLE=Various Artist - Legends of Blues - Golden Classics
DYEAR=1996
DGENRE=Blues
TTITLE0=B.B. King - The Thrill is Gone
TTITLE1=B.B. King - You Done Lost Your Good Thing Now
TTITLE2=B.B. King - It's My Own Fault Baby
TTITLE3=Jimmy Reed - Big Boss Man
TTITLE4=Jimmy Reed - Baby What You Want Me To Do
TTITLE5=Howlin' Wolf - Highway 49
TTITLE6=Howlin' Wolf - Red Rooster
TTITLE7=Muddy Waters - Baby Please Don't Go
TTITLE8=Muddy Waters - Forty Days and Forty Nights
TTITLE9=Brownie McGhee and Sonny Terry - Trouble in Mind
TTITLE10=Brownie McGhee and Sonny Terry - Blues From the Lowlands
TTITLE11=John Lee Hooker - Dimples
TTITLE12=John Lee Hooker - Boogie Chillen
TTITLE13=John Lee Hooker - Boom Boom
TTITLE14=Memphis Slim - My Gal Keeps Me Crying
TTITLE15=Memphis Slim - The Come Back
TTITLE16=Lightnin' Slim - That's Alright
TTITLE17=Lightnin' Slim - G.I. Blues
TTITLE18=Lightnin' Hopkins - Good Times
TTITLE19=Lightnin' Hopkins - Mojo Hand
EXTD=
EXTT0=
EXTT1=
EXTT2=
EXTT3=
EXTT4=
EXTT5=
EXTT6=
EXTT7=
EXTT8=
EXTT9=
EXTT10=
EXTT11=
EXTT12=
EXTT13=
EXTT14=
EXTT15=
EXTT16=
EXTT17=
EXTT18=
EXTT19=
PLAYORDER=
